4.ufo
<glyph name="zero" format="2">
	<advance width="670"/>
	<unicode hex="0030"/>
	<outline>
		<contour>
			<point x="338" y="16" type="curve" smooth="yes"/>
			<point x="190" y="16"/>
			<point x="92" y="120"/>
			<point x="92" y="277" type="curve" smooth="yes"/>
			<point x="92" y="431"/>
			<point x="188" y="534"/>
			<point x="332" y="534" type="curve" smooth="yes"/>
			<point x="480" y="534"/>
			<point x="578" y="430"/>
			<point x="578" y="273" type="curve" smooth="yes"/>
			<point x="578" y="119"/>
			<point x="482" y="16"/>
		</contour>
		<contour>
			<point x="338" y="-10" type="curve" smooth="yes"/>
			<point x="501" y="-10"/>
			<point x="610" y="105"/>
			<point x="610" y="278" type="curve" smooth="yes"/>
			<point x="610" y="447"/>
			<point x="499" y="560"/>
			<point x="332" y="560" type="curve" smooth="yes"/>
			<point x="169" y="560"/>
			<point x="60" y="445"/>
			<point x="60" y="272" type="curve" smooth="yes"/>
			<point x="60" y="103"/>
			<point x="171" y="-10"/>
		</contour>
	</outline>
</glyph>
<glyph name="two" format="2">
	<advance width="563"/>
	<unicode hex="0032"/>
	<outline>
		<contour>
			<point x="474" y="132" type="curve" smooth="yes"/>
			<point x="447" y="24"/>
			<point x="433" y="-9"/>
			<point x="383" y="-9" type="curve" smooth="yes"/>
			<point x="352" y="-9"/>
			<point x="291" y="0"/>
			<point x="261" y="7" type="curve" smooth="yes"/>
			<point x="225" y="15"/>
			<point x="171" y="23"/>
			<point x="125" y="23" type="curve" smooth="yes"/>
			<point x="105" y="23"/>
			<point x="98" y="28"/>
			<point x="98" y="42" type="curve" smooth="yes"/>
			<point x="98" y="147"/>
			<point x="198" y="206"/>
			<point x="280" y="243" type="curve" smooth="yes"/>
			<point x="365" y="281"/>
			<point x="460" y="325"/>
			<point x="460" y="407" type="curve" smooth="yes"/>
			<point x="460" y="511"/>
			<point x="398" y="560"/>
			<point x="267" y="560" type="curve" smooth="yes"/>
			<point x="149" y="560"/>
			<point x="70" y="492"/>
			<point x="70" y="389" type="curve" smooth="yes"/>
			<point x="70" y="379"/>
			<point x="73" y="368"/>
			<point x="88" y="368" type="curve" smooth="yes"/>
			<point x="100" y="368"/>
			<point x="108" y="378"/>
			<point x="108" y="393" type="curve" smooth="yes"/>
			<point x="108" y="480"/>
			<point x="172" y="538"/>
			<point x="267" y="538" type="curve" smooth="yes"/>
			<point x="378" y="538"/>
			<point x="430" y="496"/>
			<point x="430" y="407" type="curve" smooth="yes"/>
			<point x="430" y="355"/>
			<point x="399" y="323"/>
			<point x="267" y="259" type="curve" smooth="yes"/>
			<point x="158" y="206"/>
			<point x="66" y="153"/>
			<point x="66" y="39" type="curve" smooth="yes"/>
			<point x="66" y="7"/>
			<point x="77" y="0"/>
			<point x="130" y="0" type="curve" smooth="yes"/>
			<point x="177" y="0"/>
			<point x="234" y="-10"/>
			<point x="286" y="-23" type="curve" smooth="yes"/>
			<point x="322" y="-32"/>
			<point x="370" y="-41"/>
			<point x="404" y="-41" type="curve" smooth="yes"/>
			<point x="445" y="-41"/>
			<point x="469" y="-29"/>
			<point x="482" y="13" type="curve" smooth="yes"/>
			<point x="495" y="55"/>
			<point x="504" y="103"/>
			<point x="504" y="133" type="curve" smooth="yes"/>
			<point x="504" y="148"/>
			<point x="499" y="155"/>
			<point x="492" y="155" type="curve" smooth="yes"/>
			<point x="486" y="155"/>
			<point x="478" y="148"/>
		</contour>
	</outline>
</glyph>
<glyph name="H" format="2">
	<advance width="801"/>
	<unicode hex="0048"/>
	<outline>
		<contour>
			<point x="127" y="-6" type="line"/>
			<point x="157" y="-6" type="line"/>
			<point x="157" y="725" type="line"/>
			<point x="127" y="725" type="line"/>
		</contour>
		<contour>
			<point x="141" y="-10" type="curve" smooth="yes"/>
			<point x="157" y="-10"/>
			<point x="178" y="-4"/>
			<point x="178" y="5" type="curve"/>
			<point x="168" y="20"/>
			<point x="157" y="49"/>
			<point x="157" y="85" type="curve"/>
			<point x="127" y="85" type="line"/>
			<point x="127" y="49"/>
			<point x="117" y="20"/>
			<point x="107" y="5" type="curve"/>
			<point x="107" y="-4"/>
			<point x="127" y="-10"/>
		</contour>
		<contour>
			<point x="141" y="760" type="curve" smooth="yes"/>
			<point x="127" y="760"/>
			<point x="107" y="754"/>
			<point x="107" y="745" type="curve"/>
			<point x="117" y="730"/>
			<point x="127" y="701"/>
			<point x="127" y="665" type="curve"/>
			<point x="157" y="665" type="line"/>
			<point x="157" y="701"/>
			<point x="168" y="730"/>
			<point x="178" y="745" type="curve"/>
			<point x="178" y="754"/>
			<point x="157" y="760"/>
		</contour>
		<contour>
			<point x="143" y="471" type="line"/>
			<point x="143" y="446" type="line"/>
			<point x="658" y="446" type="line"/>
			<point x="658" y="471" type="line"/>
		</contour>
		<contour>
			<point x="644" y="-6" type="line"/>
			<point x="674" y="-6" type="line"/>
			<point x="674" y="725" type="line"/>
			<point x="644" y="725" type="line"/>
		</contour>
		<contour>
			<point x="658" y="-10" type="curve" smooth="yes"/>
			<point x="674" y="-10"/>
			<point x="695" y="-4"/>
			<point x="695" y="5" type="curve"/>
			<point x="685" y="20"/>
			<point x="674" y="49"/>
			<point x="674" y="85" type="curve"/>
			<point x="644" y="85" type="line"/>
			<point x="644" y="49"/>
			<point x="634" y="20"/>
			<point x="624" y="5" type="curve"/>
			<point x="624" y="-4"/>
			<point x="644" y="-10"/>
		</contour>
		<contour>
			<point x="658" y="760" type="curve" smooth="yes"/>
			<point x="644" y="760"/>
			<point x="624" y="754"/>
			<point x="624" y="745" type="curve"/>
			<point x="634" y="730"/>
			<point x="644" y="701"/>
			<point x="644" y="665" type="curve"/>
			<point x="674" y="665" type="line"/>
			<point x="674" y="701"/>
			<point x="685" y="730"/>
			<point x="695" y="745" type="curve"/>
			<point x="695" y="754"/>
			<point x="674" y="760"/>
		</contour>
	</outline>
</glyph>
<glyph name="I" format="2">
	<advance width="212"/>
	<unicode hex="0049"/>
	<outline>
		<contour>
			<point x="91" y="-6" type="line"/>
			<point x="121" y="-6" type="line"/>
			<point x="121" y="725" type="line"/>
			<point x="91" y="725" type="line"/>
		</contour>
		<contour>
			<point x="105" y="-10" type="curve" smooth="yes"/>
			<point x="121" y="-10"/>
			<point x="142" y="-4"/>
			<point x="142" y="5" type="curve"/>
			<point x="132" y="20"/>
			<point x="121" y="49"/>
			<point x="121" y="85" type="curve"/>
			<point x="91" y="85" type="line"/>
			<point x="91" y="49"/>
			<point x="81" y="20"/>
			<point x="71" y="5" type="curve"/>
			<point x="71" y="-4"/>
			<point x="91" y="-10"/>
		</contour>
		<contour>
			<point x="105" y="760" type="curve" smooth="yes"/>
			<point x="91" y="760"/>
			<point x="71" y="754"/>
			<point x="71" y="745" type="curve"/>
			<point x="81" y="730"/>
			<point x="91" y="701"/>
			<point x="91" y="665" type="curve"/>
			<point x="121" y="665" type="line"/>
			<point x="121" y="701"/>
			<point x="132" y="730"/>
			<point x="142" y="745" type="curve"/>
			<point x="142" y="754"/>
			<point x="121" y="760"/>
		</contour>
	</outline>
</glyph>
<glyph name="a" format="2">
	<advance width="596"/>
	<unicode hex="0061"/>
	<outline>
		<contour>
			<point x="176" y="-9" type="curve"/>
			<point x="330" y="-9"/>
			<point x="390" y="166"/>
			<point x="424" y="284" type="curve"/>
			<point x="426" y="284" type="line"/>
			<point x="426" y="128" type="line" smooth="yes"/>
			<point x="426" y="40"/>
			<point x="431" y="-3"/>
			<point x="490" y="-3" type="curve" smooth="yes"/>
			<point x="545" y="-3"/>
			<point x="588" y="29"/>
			<point x="588" y="71" type="curve" smooth="yes"/>
			<point x="588" y="85"/>
			<point x="585" y="92"/>
			<point x="574" y="92" type="curve" smooth="yes"/>
			<point x="561" y="92"/>
			<point x="552" y="81"/>
			<point x="552" y="62" type="curve" smooth="yes"/>
			<point x="552" y="40"/>
			<point x="528" y="10"/>
			<point x="503" y="10" type="curve" smooth="yes"/>
			<point x="458" y="10"/>
			<point x="456" y="47"/>
			<point x="456" y="121" type="curve" smooth="yes"/>
			<point x="456" y="363" type="line" smooth="yes"/>
			<point x="456" y="505"/>
			<point x="400" y="560"/>
			<point x="263" y="560" type="curve" smooth="yes"/>
			<point x="92" y="560"/>
			<point x="39" y="438"/>
			<point x="39" y="389" type="curve" smooth="yes"/>
			<point x="39" y="379"/>
			<point x="42" y="368"/>
			<point x="57" y="368" type="curve" smooth="yes"/>
			<point x="69" y="368"/>
			<point x="77" y="378"/>
			<point x="77" y="393" type="curve" smooth="yes"/>
			<point x="77" y="458"/>
			<point x="129" y="538"/>
			<point x="248" y="538" type="curve" smooth="yes"/>
			<point x="379" y="538"/>
			<point x="428" y="493"/>
			<point x="426" y="377" type="curve" smooth="yes"/>
			<point x="428" y="365"/>
			<point x="413" y="309"/>
			<point x="234" y="288" type="curve" smooth="yes"/>
			<point x="106" y="274"/>
			<point x="42" y="221"/>
			<point x="42" y="129" type="curve" smooth="yes"/>
			<point x="42" y="57"/>
			<point x="81" y="-13"/>
		</contour>
		<contour>
			<point x="424" y="353" type="line"/>
			<point x="352" y="122"/>
			<point x="300" y="14"/>
			<point x="171" y="14" type="curve" smooth="yes"/>
			<point x="97" y="14"/>
			<point x="74" y="88"/>
			<point x="74" y="132" type="curve" smooth="yes"/>
			<point x="74" y="183"/>
			<point x="93" y="250"/>
			<point x="220" y="267" type="curve" smooth="yes"/>
			<point x="314" y="281"/>
			<point x="337" y="277"/>
			<point x="439" y="341" type="curve"/>
		</contour>
	</outline>
</glyph>
<glyph name="c" format="2">
	<advance width="603"/>
	<unicode hex="0063"/>
	<outline>
		<contour>
			<point x="535" y="358" type="curve" smooth="yes"/>
			<point x="546" y="358"/>
			<point x="553" y="366"/>
			<point x="553" y="385" type="curve" smooth="yes"/>
			<point x="553" y="483"/>
			<point x="452" y="560"/>
			<point x="322" y="560" type="curve" smooth="yes"/>
			<point x="140" y="560"/>
			<point x="39" y="428"/>
			<point x="39" y="262" type="curve" smooth="yes"/>
			<point x="39" y="99"/>
			<point x="153" y="-10"/>
			<point x="306" y="-10" type="curve" smooth="yes"/>
			<point x="444" y="-10"/>
			<point x="559" y="72"/>
			<point x="559" y="177" type="curve" smooth="yes"/>
			<point x="559" y="198"/>
			<point x="554" y="207"/>
			<point x="545" y="207" type="curve" smooth="yes"/>
			<point x="529" y="207"/>
			<point x="525" y="198"/>
			<point x="525" y="174" type="curve" smooth="yes"/>
			<point x="525" y="81"/>
			<point x="431" y="8"/>
			<point x="318" y="8" type="curve" smooth="yes"/>
			<point x="180" y="8"/>
			<point x="71" y="131"/>
			<point x="71" y="277" type="curve" smooth="yes"/>
			<point x="71" y="452"/>
			<point x="198" y="544"/>
			<point x="311" y="544" type="curve" smooth="yes"/>
			<point x="418" y="544"/>
			<point x="518" y="482"/>
			<point x="518" y="380" type="curve" smooth="yes"/>
			<point x="518" y="365"/>
			<point x="523" y="358"/>
		</contour>
	</outline>
</glyph>
<glyph name="d" format="2">
	<advance width="681"/>
	<unicode hex="0064"/>
	<outline>
		<contour>
			<point x="306" y="-10" type="curve" smooth="yes"/>
			<point x="409" y="-10"/>
			<point x="524" y="23"/>
			<point x="548" y="164" type="curve"/>
			<point x="525" y="174" type="line"/>
			<point x="525" y="74"/>
			<point x="416" y="6"/>
			<point x="317" y="6" type="curve" smooth="yes"/>
			<point x="178" y="6"/>
			<point x="71" y="124"/>
			<point x="71" y="277" type="curve" smooth="yes"/>
			<point x="71" y="427"/>
			<point x="176" y="544"/>
			<point x="311" y="544" type="curve" smooth="yes"/>
			<point x="409" y="544"/>
			<point x="525" y="477"/>
			<point x="525" y="381" type="curve"/>
			<point x="538" y="381" type="line"/>
			<point x="538" y="446" type="line"/>
			<point x="491" y="526"/>
			<point x="415" y="560"/>
			<point x="322" y="560" type="curve" smooth="yes"/>
			<point x="152" y="560"/>
			<point x="39" y="441"/>
			<point x="39" y="262" type="curve" smooth="yes"/>
			<point x="39" y="103"/>
			<point x="149" y="-10"/>
		</contour>
		<contour>
			<point x="597" y="-10" type="curve" smooth="yes"/>
			<point x="652" y="-10"/>
			<point x="687" y="25"/>
			<point x="687" y="71" type="curve" smooth="yes"/>
			<point x="687" y="85"/>
			<point x="681" y="92"/>
			<point x="670" y="92" type="curve" smooth="yes"/>
			<point x="657" y="92"/>
			<point x="651" y="81"/>
			<point x="651" y="62" type="curve" smooth="yes"/>
			<point x="651" y="35"/>
			<point x="645" y="10"/>
			<point x="602" y="10" type="curve" smooth="yes"/>
			<point x="557" y="10"/>
			<point x="552" y="47"/>
			<point x="552" y="119" type="curve" smooth="yes"/>
			<point x="552" y="665" type="line" smooth="yes"/>
			<point x="552" y="701"/>
			<point x="563" y="730"/>
			<point x="573" y="745" type="curve"/>
			<point x="573" y="754"/>
			<point x="553" y="760"/>
			<point x="537" y="760" type="curve" smooth="yes"/>
			<point x="523" y="760"/>
			<point x="504" y="754"/>
			<point x="504" y="745" type="curve"/>
			<point x="514" y="730"/>
			<point x="525" y="701"/>
			<point x="525" y="665" type="curve" smooth="yes"/>
			<point x="525" y="119" type="line" smooth="yes"/>
			<point x="525" y="35"/>
			<point x="538" y="-10"/>
		</contour>
	</outline>
</glyph>
<glyph name="e" format="2">
	<advance width="635"/>
	<unicode hex="0065"/>
	<outline>
		<contour>
			<point x="322" y="-16" type="curve" smooth="yes"/>
			<point x="465" y="-16"/>
			<point x="578" y="69"/>
			<point x="578" y="177" type="curve" smooth="yes"/>
			<point x="578" y="198"/>
			<point x="572" y="207"/>
			<point x="563" y="207" type="curve" smooth="yes"/>
			<point x="547" y="207"/>
			<point x="544" y="198"/>
			<point x="544" y="174" type="curve" smooth="yes"/>
			<point x="544" y="78"/>
			<point x="454" y="2"/>
			<point x="340" y="2" type="curve" smooth="yes"/>
			<point x="202" y="2"/>
			<point x="86" y="117"/>
			<point x="86" y="255" type="curve" smooth="yes"/>
			<point x="86" y="271"/>
			<point x="92" y="277"/>
			<point x="107" y="277" type="curve"/>
			<point x="528" y="277" type="line"/>
			<point x="561" y="277"/>
			<point x="568" y="288"/>
			<point x="568" y="318" type="curve" smooth="yes"/>
			<point x="568" y="460"/>
			<point x="494" y="560"/>
			<point x="334" y="560" type="curve" smooth="yes"/>
			<point x="152" y="560"/>
			<point x="48" y="418"/>
			<point x="58" y="237" type="curve" smooth="yes"/>
			<point x="65" y="88"/>
			<point x="174" y="-16"/>
		</contour>
		<contour>
			<point x="115" y="299" type="line" smooth="yes"/>
			<point x="97" y="299"/>
			<point x="91" y="304"/>
			<point x="91" y="319" type="curve" smooth="yes"/>
			<point x="91" y="450"/>
			<point x="211" y="546"/>
			<point x="324" y="546" type="curve" smooth="yes"/>
			<point x="449" y="546"/>
			<point x="525" y="465"/>
			<point x="531" y="342" type="curve" smooth="yes"/>
			<point x="533" y="312"/>
			<point x="519" y="299"/>
			<point x="486" y="299" type="curve" smooth="yes"/>
		</contour>
	</outline>
</glyph>
<glyph name="h" format="2">
	<advance width="636"/>
	<unicode hex="0068"/>
	<outline>
		<contour>
			<point x="518" y="363" type="line" smooth="yes"/>
			<point x="518" y="619"/>
			<point x="233" y="623"/>
			<point x="141" y="381" type="curve"/>
			<point x="148" y="326" type="line"/>
			<point x="177" y="568"/>
			<point x="488" y="613"/>
			<point x="488" y="374" type="curve" smooth="yes"/>
			<point x="488" y="-7" type="line"/>
			<point x="518" y="-7" type="line"/>
		</contour>
		<contour>
			<point x="121" y="-7" type="line"/>
			<point x="148" y="-7" type="line"/>
			<point x="148" y="725" type="line"/>
			<point x="121" y="725" type="line"/>
		</contour>
		<contour>
			<point x="133" y="-10" type="curve" smooth="yes"/>
			<point x="148" y="-10"/>
			<point x="166" y="-5"/>
			<point x="166" y="3" type="curve"/>
			<point x="157" y="17"/>
			<point x="148" y="43"/>
			<point x="148" y="75" type="curve"/>
			<point x="121" y="75" type="line"/>
			<point x="121" y="43"/>
			<point x="112" y="17"/>
			<point x="103" y="3" type="curve"/>
			<point x="103" y="-5"/>
			<point x="121" y="-10"/>
		</contour>
		<contour>
			<point x="502" y="-10" type="curve" smooth="yes"/>
			<point x="517" y="-10"/>
			<point x="536" y="-5"/>
			<point x="536" y="3" type="curve"/>
			<point x="527" y="17"/>
			<point x="518" y="43"/>
			<point x="518" y="75" type="curve"/>
			<point x="488" y="75" type="line"/>
			<point x="488" y="43"/>
			<point x="479" y="17"/>
			<point x="470" y="3" type="curve"/>
			<point x="470" y="-5"/>
			<point x="490" y="-10"/>
		</contour>
		<contour>
			<point x="133" y="760" type="curve" smooth="yes"/>
			<point x="119" y="760"/>
			<point x="100" y="754"/>
			<point x="100" y="745" type="curve"/>
			<point x="110" y="730"/>
			<point x="121" y="701"/>
			<point x="121" y="665" type="curve"/>
			<point x="148" y="665" type="line"/>
			<point x="148" y="701"/>
			<point x="159" y="730"/>
			<point x="169" y="745" type="curve"/>
			<point x="169" y="754"/>
			<point x="149" y="760"/>
		</contour>
	</outline>
</glyph>
<glyph name="i" format="2">
	<advance width="165"/>
	<unicode hex="0069"/>
	<outline>
		<contour>
			<point x="69" y="-7" type="line"/>
			<point x="96" y="-7" type="line"/>
			<point x="96" y="528" type="line"/>
			<point x="69" y="528" type="line"/>
		</contour>
		<contour>
			<point x="81" y="-10" type="curve" smooth="yes"/>
			<point x="96" y="-10"/>
			<point x="114" y="-5"/>
			<point x="114" y="3" type="curve"/>
			<point x="105" y="17"/>
			<point x="96" y="43"/>
			<point x="96" y="75" type="curve"/>
			<point x="69" y="75" type="line"/>
			<point x="69" y="43"/>
			<point x="60" y="17"/>
			<point x="51" y="3" type="curve"/>
			<point x="51" y="-5"/>
			<point x="69" y="-10"/>
		</contour>
		<contour>
			<point x="81" y="560" type="curve" smooth="yes"/>
			<point x="69" y="560"/>
			<point x="51" y="554"/>
			<point x="51" y="546" type="curve"/>
			<point x="60" y="533"/>
			<point x="69" y="506"/>
			<point x="69" y="474" type="curve"/>
			<point x="96" y="474" type="line"/>
			<point x="96" y="506"/>
			<point x="105" y="533"/>
			<point x="114" y="546" type="curve"/>
			<point x="114" y="554"/>
			<point x="96" y="560"/>
		</contour>
		<contour>
			<point x="83" y="692" type="curve" smooth="yes"/>
			<point x="102" y="692"/>
			<point x="117" y="707"/>
			<point x="117" y="726" type="curve" smooth="yes"/>
			<point x="117" y="745"/>
			<point x="102" y="760"/>
			<point x="83" y="760" type="curve" smooth="yes"/>
			<point x="64" y="760"/>
			<point x="49" y="745"/>
			<point x="49" y="726" type="curve" smooth="yes"/>
			<point x="49" y="707"/>
			<point x="64" y="692"/>
		</contour>
	</outline>
</glyph>
<glyph name="k" format="2">
	<advance width="584"/>
	<unicode hex="006B"/>
	<guideline x="41" y="-10" angle="0"/>
	<outline>
		<contour>
			<point x="407" y="-5" type="curve" smooth="yes"/>
			<point x="484" y="-5"/>
			<point x="560" y="52"/>
			<point x="560" y="168" type="curve" smooth="yes"/>
			<point x="560" y="178"/>
			<point x="557" y="189"/>
			<point x="542" y="189" type="curve" smooth="yes"/>
			<point x="530" y="189"/>
			<point x="522" y="179"/>
			<point x="522" y="164" type="curve" smooth="yes"/>
			<point x="522" y="65"/>
			<point x="486" y="15"/>
			<point x="410" y="15" type="curve" smooth="yes"/>
			<point x="334" y="15"/>
			<point x="293" y="70"/>
			<point x="293" y="180" type="curve" smooth="yes"/>
			<point x="293" y="229" type="line"/>
			<point x="293" y="317"/>
			<point x="288" y="360"/>
			<point x="229" y="360" type="curve" smooth="yes"/>
			<point x="209" y="360"/>
			<point x="191" y="356"/>
			<point x="176" y="349" type="curve"/>
			<point x="169" y="341"/>
			<point x="148" y="295"/>
			<point x="147" y="273" type="curve" smooth="yes"/>
			<point x="146" y="251"/>
			<point x="183" y="258"/>
			<point x="201" y="251" type="curve"/>
			<point x="198" y="270" type="line"/>
			<point x="181" y="270"/>
			<point x="162" y="273"/>
			<point x="167" y="295" type="curve" smooth="yes"/>
			<point x="175" y="329"/>
			<point x="191" y="347"/>
			<point x="216" y="347" type="curve" smooth="yes"/>
			<point x="261" y="347"/>
			<point x="263" y="310"/>
			<point x="263" y="236" type="curve" smooth="yes"/>
			<point x="263" y="194" type="line" smooth="yes"/>
			<point x="263" y="63"/>
			<point x="303" y="-5"/>
		</contour>
		<contour>
			<point x="154" y="266" type="line"/>
			<point x="167" y="323" type="line"/>
			<point x="186" y="344" type="line"/>
			<point x="238" y="475"/>
			<point x="291" y="537"/>
			<point x="389" y="537" type="curve" smooth="yes"/>
			<point x="466" y="537"/>
			<point x="490" y="463"/>
			<point x="490" y="419" type="curve" smooth="yes"/>
			<point x="490" y="368"/>
			<point x="470" y="302"/>
			<point x="340" y="284" type="curve" smooth="yes"/>
			<point x="246" y="271"/>
			<point x="226" y="270"/>
			<point x="198" y="270" type="curve"/>
		</contour>
		<contour>
			<point x="136" y="265" type="line"/>
			<point x="136" y="258"/>
			<point x="136" y="242"/>
			<point x="189" y="247" type="curve" smooth="yes"/>
			<point x="219" y="250"/>
			<point x="262" y="256"/>
			<point x="326" y="263" type="curve" smooth="yes"/>
			<point x="454" y="277"/>
			<point x="518" y="330"/>
			<point x="518" y="422" type="curve" smooth="yes"/>
			<point x="518" y="494"/>
			<point x="479" y="560"/>
			<point x="384" y="560" type="curve" smooth="yes"/>
			<point x="230" y="560"/>
			<point x="170" y="385"/>
			<point x="136" y="267" type="curve"/>
		</contour>
		<contour>
			<point x="148" y="665" type="line" smooth="yes"/>
			<point x="148" y="701"/>
			<point x="159" y="730"/>
			<point x="169" y="745" type="curve"/>
			<point x="169" y="754"/>
			<point x="149" y="760"/>
			<point x="133" y="760" type="curve" smooth="yes"/>
			<point x="119" y="760"/>
			<point x="100" y="754"/>
			<point x="100" y="745" type="curve"/>
			<point x="110" y="730"/>
			<point x="121" y="701"/>
			<point x="121" y="665" type="curve" smooth="yes"/>
			<point x="121" y="75" type="line" smooth="yes"/>
			<point x="121" y="43"/>
			<point x="112" y="17"/>
			<point x="103" y="3" type="curve"/>
			<point x="103" y="-5"/>
			<point x="121" y="-10"/>
			<point x="133" y="-10" type="curve" smooth="yes"/>
			<point x="148" y="-10"/>
			<point x="166" y="-5"/>
			<point x="166" y="3" type="curve"/>
			<point x="157" y="17"/>
			<point x="148" y="43"/>
			<point x="148" y="75" type="curve" smooth="yes"/>
		</contour>
	</outline>
</glyph>
<glyph name="l" format="2">
	<advance width="227"/>
	<unicode hex="006C"/>
	<outline>
		<contour>
			<point x="127" y="665" type="line" smooth="yes"/>
			<point x="127" y="701"/>
			<point x="138" y="730"/>
			<point x="148" y="745" type="curve"/>
			<point x="148" y="754"/>
			<point x="128" y="760"/>
			<point x="112" y="760" type="curve" smooth="yes"/>
			<point x="98" y="760"/>
			<point x="79" y="754"/>
			<point x="79" y="745" type="curve"/>
			<point x="89" y="730"/>
			<point x="100" y="701"/>
			<point x="100" y="665" type="curve" smooth="yes"/>
			<point x="100" y="75" type="line" smooth="yes"/>
			<point x="100" y="43"/>
			<point x="91" y="17"/>
			<point x="82" y="3" type="curve"/>
			<point x="82" y="-5"/>
			<point x="100" y="-10"/>
			<point x="112" y="-10" type="curve" smooth="yes"/>
			<point x="127" y="-10"/>
			<point x="145" y="-5"/>
			<point x="145" y="3" type="curve"/>
			<point x="136" y="17"/>
			<point x="127" y="43"/>
			<point x="127" y="75" type="curve" smooth="yes"/>
		</contour>
	</outline>
</glyph>
<glyph name="m" format="2">
	<advance width="895"/>
	<unicode hex="006D"/>
	<outline>
		<contour>
			<point x="470" y="363" type="line"/>
			<point x="470" y="619"/>
			<point x="185" y="623"/>
			<point x="93" y="381" type="curve"/>
			<point x="100" y="326" type="line"/>
			<point x="129" y="568"/>
			<point x="440" y="613"/>
			<point x="440" y="374" type="curve" smooth="yes"/>
			<point x="440" y="-7" type="line"/>
			<point x="470" y="-7" type="line"/>
		</contour>
		<contour>
			<point x="73" y="-7" type="line"/>
			<point x="100" y="-7" type="line"/>
			<point x="100" y="528" type="line"/>
			<point x="73" y="528" type="line"/>
		</contour>
		<contour>
			<point x="85" y="-10" type="curve" smooth="yes"/>
			<point x="100" y="-10"/>
			<point x="118" y="-5"/>
			<point x="118" y="3" type="curve"/>
			<point x="109" y="17"/>
			<point x="100" y="43"/>
			<point x="100" y="75" type="curve"/>
			<point x="73" y="75" type="line"/>
			<point x="73" y="43"/>
			<point x="64" y="17"/>
			<point x="55" y="3" type="curve"/>
			<point x="55" y="-5"/>
			<point x="73" y="-10"/>
		</contour>
		<contour>
			<point x="85" y="560" type="curve" smooth="yes"/>
			<point x="73" y="560"/>
			<point x="55" y="554"/>
			<point x="55" y="546" type="curve"/>
			<point x="64" y="533"/>
			<point x="73" y="506"/>
			<point x="73" y="474" type="curve"/>
			<point x="100" y="474" type="line"/>
			<point x="100" y="506"/>
			<point x="109" y="533"/>
			<point x="118" y="546" type="curve"/>
			<point x="118" y="554"/>
			<point x="100" y="560"/>
		</contour>
		<contour>
			<point x="454" y="-10" type="curve" smooth="yes"/>
			<point x="469" y="-10"/>
			<point x="488" y="-5"/>
			<point x="488" y="3" type="curve"/>
			<point x="479" y="17"/>
			<point x="470" y="43"/>
			<point x="470" y="75" type="curve"/>
			<point x="440" y="75" type="line"/>
			<point x="440" y="43"/>
			<point x="431" y="17"/>
			<point x="422" y="3" type="curve"/>
			<point x="422" y="-5"/>
			<point x="442" y="-10"/>
		</contour>
		<contour>
			<point x="837" y="363" type="line"/>
			<point x="837" y="619"/>
			<point x="552" y="623"/>
			<point x="460" y="381" type="curve"/>
			<point x="467" y="326" type="line"/>
			<point x="496" y="568"/>
			<point x="807" y="613"/>
			<point x="807" y="374" type="curve" smooth="yes"/>
			<point x="807" y="-7" type="line"/>
			<point x="837" y="-7" type="line"/>
		</contour>
		<contour>
			<point x="821" y="-10" type="curve" smooth="yes"/>
			<point x="836" y="-10"/>
			<point x="855" y="-5"/>
			<point x="855" y="3" type="curve"/>
			<point x="846" y="17"/>
			<point x="837" y="43"/>
			<point x="837" y="75" type="curve"/>
			<point x="807" y="75" type="line"/>
			<point x="807" y="43"/>
			<point x="798" y="17"/>
			<point x="789" y="3" type="curve"/>
			<point x="789" y="-5"/>
			<point x="809" y="-10"/>
		</contour>
	</outline>
</glyph>
<glyph name="n" format="2">
	<advance width="589"/>
	<unicode hex="006E"/>
	<outline>
		<contour>
			<point x="495" y="75" type="curve" smooth="yes"/>
			<point x="495" y="380" type="line" smooth="yes"/>
			<point x="495" y="493"/>
			<point x="435" y="560"/>
			<point x="334" y="560" type="curve" smooth="yes"/>
			<point x="241" y="560"/>
			<point x="153" y="491"/>
			<point x="118" y="373" type="curve"/>
			<point x="118" y="338" type="line"/>
			<point x="167" y="471"/>
			<point x="237" y="532"/>
			<point x="329" y="532" type="curve" smooth="yes"/>
			<point x="417" y="532"/>
			<point x="465" y="476"/>
			<point x="465" y="374" type="curve" smooth="yes"/>
			<point x="465" y="75" type="line" smooth="yes"/>
			<point x="465" y="43"/>
			<point x="456" y="17"/>
			<point x="447" y="3" type="curve"/>
			<point x="447" y="-5"/>
			<point x="467" y="-10"/>
			<point x="479" y="-10" type="curve" smooth="yes"/>
			<point x="494" y="-10"/>
			<point x="513" y="-5"/>
			<point x="513" y="3" type="curve"/>
			<point x="504" y="17"/>
			<point x="495" y="43"/>
		</contour>
		<contour>
			<point x="125" y="474" type="line" smooth="yes"/>
			<point x="125" y="506"/>
			<point x="134" y="533"/>
			<point x="143" y="546" type="curve"/>
			<point x="143" y="554"/>
			<point x="129" y="560"/>
			<point x="110" y="560" type="curve" smooth="yes"/>
			<point x="92" y="560"/>
			<point x="80" y="554"/>
			<point x="80" y="546" type="curve"/>
			<point x="89" y="533"/>
			<point x="98" y="506"/>
			<point x="98" y="474" type="curve" smooth="yes"/>
			<point x="98" y="75" type="line" smooth="yes"/>
			<point x="98" y="33"/>
			<point x="89" y="17"/>
			<point x="80" y="3" type="curve"/>
			<point x="80" y="-5"/>
			<point x="98" y="-10"/>
			<point x="110" y="-10" type="curve" smooth="yes"/>
			<point x="125" y="-10"/>
			<point x="143" y="-5"/>
			<point x="143" y="3" type="curve"/>
			<point x="134" y="17"/>
			<point x="125" y="33"/>
			<point x="125" y="75" type="curve" smooth="yes"/>
		</contour>
	</outline>
</glyph>
<glyph name="o" format="2">
	<advance width="628"/>
	<unicode hex="006F"/>
	<outline>
		<contour>
			<point x="317" y="6" type="curve" smooth="yes"/>
			<point x="178" y="6"/>
			<point x="71" y="124"/>
			<point x="71" y="277" type="curve" smooth="yes"/>
			<point x="71" y="427"/>
			<point x="176" y="544"/>
			<point x="311" y="544" type="curve" smooth="yes"/>
			<point x="450" y="544"/>
			<point x="557" y="426"/>
			<point x="557" y="273" type="curve" smooth="yes"/>
			<point x="557" y="123"/>
			<point x="452" y="6"/>
		</contour>
		<contour>
			<point x="306" y="-10" type="curve" smooth="yes"/>
			<point x="476" y="-10"/>
			<point x="589" y="109"/>
			<point x="589" y="288" type="curve" smooth="yes"/>
			<point x="589" y="447"/>
			<point x="479" y="560"/>
			<point x="322" y="560" type="curve" smooth="yes"/>
			<point x="152" y="560"/>
			<point x="39" y="441"/>
			<point x="39" y="262" type="curve" smooth="yes"/>
			<point x="39" y="103"/>
			<point x="149" y="-10"/>
		</contour>
	</outline>
</glyph>
<glyph name="p" format="2">
	<advance width="655"/>
	<unicode hex="0070"/>
	<outline>
		<contour>
			<point x="344" y="6" type="curve" smooth="yes"/>
			<point x="232" y="6"/>
			<point x="127" y="76"/>
			<point x="127" y="164" type="curve"/>
			<point x="101" y="159" type="line"/>
			<point x="101" y="64"/>
			<point x="198" y="-10"/>
			<point x="333" y="-10" type="curve" smooth="yes"/>
			<point x="503" y="-10"/>
			<point x="616" y="109"/>
			<point x="616" y="288" type="curve" smooth="yes"/>
			<point x="616" y="447"/>
			<point x="506" y="560"/>
			<point x="349" y="560" type="curve" smooth="yes"/>
			<point x="206" y="560"/>
			<point x="101" y="463"/>
			<point x="101" y="367" type="curve"/>
			<point x="127" y="340" type="line"/>
			<point x="127" y="436"/>
			<point x="218" y="542"/>
			<point x="338" y="542" type="curve" smooth="yes"/>
			<point x="477" y="542"/>
			<point x="584" y="425"/>
			<point x="584" y="273" type="curve" smooth="yes"/>
			<point x="584" y="123"/>
			<point x="479" y="6"/>
		</contour>
		<contour>
			<point x="100" y="-125" type="line"/>
			<point x="127" y="-125" type="line"/>
			<point x="127" y="474" type="line"/>
			<point x="100" y="474" type="line"/>
		</contour>
		<contour>
			<point x="112" y="-210" type="curve" smooth="yes"/>
			<point x="127" y="-210"/>
			<point x="145" y="-205"/>
			<point x="145" y="-197" type="curve"/>
			<point x="136" y="-183"/>
			<point x="127" y="-157"/>
			<point x="127" y="-125" type="curve"/>
			<point x="100" y="-125" type="line"/>
			<point x="100" y="-157"/>
			<point x="91" y="-183"/>
			<point x="82" y="-197" type="curve"/>
			<point x="82" y="-205"/>
			<point x="100" y="-210"/>
		</contour>
		<contour>
			<point x="112" y="560" type="curve" smooth="yes"/>
			<point x="100" y="560"/>
			<point x="82" y="554"/>
			<point x="82" y="546" type="curve"/>
			<point x="91" y="533"/>
			<point x="100" y="506"/>
			<point x="100" y="474" type="curve"/>
			<point x="127" y="474" type="line"/>
			<point x="127" y="506"/>
			<point x="136" y="533"/>
			<point x="145" y="546" type="curve"/>
			<point x="145" y="554"/>
			<point x="127" y="560"/>
		</contour>
	</outline>
</glyph>
<glyph name="r" format="2">
	<advance width="383"/>
	<unicode hex="0072"/>
	<outline>
		<contour>
			<point x="100" y="-7" type="line"/>
			<point x="127" y="-7" type="line"/>
			<point x="127" y="528" type="line"/>
			<point x="100" y="528" type="line"/>
		</contour>
		<contour>
			<point x="112" y="-10" type="curve" smooth="yes"/>
			<point x="127" y="-10"/>
			<point x="145" y="-5"/>
			<point x="145" y="3" type="curve"/>
			<point x="136" y="17"/>
			<point x="127" y="43"/>
			<point x="127" y="75" type="curve"/>
			<point x="100" y="75" type="line"/>
			<point x="100" y="43"/>
			<point x="91" y="17"/>
			<point x="82" y="3" type="curve"/>
			<point x="82" y="-5"/>
			<point x="100" y="-10"/>
		</contour>
		<contour>
			<point x="112" y="560" type="curve" smooth="yes"/>
			<point x="100" y="560"/>
			<point x="82" y="554"/>
			<point x="82" y="546" type="curve"/>
			<point x="91" y="533"/>
			<point x="100" y="506"/>
			<point x="100" y="474" type="curve"/>
			<point x="127" y="474" type="line"/>
			<point x="127" y="506"/>
			<point x="136" y="533"/>
			<point x="145" y="546" type="curve"/>
			<point x="145" y="554"/>
			<point x="127" y="560"/>
		</contour>
		<contour>
			<point x="120" y="381" type="curve"/>
			<point x="127" y="326" type="line"/>
			<point x="135" y="396"/>
			<point x="211" y="541"/>
			<point x="293" y="541" type="curve" smooth="yes"/>
			<point x="328" y="541"/>
			<point x="344" y="526"/>
			<point x="344" y="491" type="curve" smooth="yes"/>
			<point x="344" y="479"/>
			<point x="352" y="472"/>
			<point x="366" y="472" type="curve" smooth="yes"/>
			<point x="379" y="472"/>
			<point x="386" y="479"/>
			<point x="386" y="491" type="curve" smooth="yes"/>
			<point x="386" y="532"/>
			<point x="352" y="560"/>
			<point x="304" y="560" type="curve" smooth="yes"/>
			<point x="236" y="560"/>
			<point x="168" y="499"/>
		</contour>
	</outline>
</glyph>
<glyph name="t" format="2">
	<advance width="560"/>
	<unicode hex="0074"/>
	<outline>
		<contour>
			<point x="327" y="-10" type="curve" smooth="yes"/>
			<point x="433" y="-10"/>
			<point x="520" y="73"/>
			<point x="520" y="178" type="curve" smooth="yes"/>
			<point x="520" y="200"/>
			<point x="516" y="207"/>
			<point x="505" y="207" type="curve" smooth="yes"/>
			<point x="487" y="207"/>
			<point x="486" y="190"/>
			<point x="486" y="174" type="curve" smooth="yes"/>
			<point x="486" y="76"/>
			<point x="421" y="8"/>
			<point x="338" y="8" type="curve" smooth="yes"/>
			<point x="216" y="8"/>
			<point x="152" y="96"/>
			<point x="152" y="264" type="curve"/>
			<point x="152" y="634" type="line"/>
			<point x="152" y="662"/>
			<point x="159" y="690"/>
			<point x="170" y="706" type="curve"/>
			<point x="170" y="713"/>
			<point x="154" y="720"/>
			<point x="137" y="720" type="curve" smooth="yes"/>
			<point x="122" y="720"/>
			<point x="107" y="713"/>
			<point x="107" y="706" type="curve"/>
			<point x="118" y="690"/>
			<point x="125" y="662"/>
			<point x="125" y="634" type="curve"/>
			<point x="125" y="274" type="line"/>
			<point x="125" y="79"/>
			<point x="188" y="-10"/>
		</contour>
		<contour>
			<point x="152" y="507" type="line"/>
			<point x="152" y="525"/>
			<point x="157" y="529"/>
			<point x="170" y="529" type="curve"/>
			<point x="504" y="522" type="line" smooth="yes"/>
			<point x="512" y="522"/>
			<point x="518" y="526"/>
			<point x="518" y="537" type="curve" smooth="yes"/>
			<point x="518" y="546"/>
			<point x="511" y="550"/>
			<point x="504" y="550" type="curve" smooth="yes"/>
			<point x="19" y="550" type="line" smooth="yes"/>
			<point x="14" y="550"/>
			<point x="10" y="545"/>
			<point x="10" y="538" type="curve" smooth="yes"/>
			<point x="10" y="530"/>
			<point x="14" y="525"/>
			<point x="19" y="525" type="curve" smooth="yes"/>
			<point x="130" y="525" type="line"/>
		</contour>
	</outline>
</glyph>
<glyph name="u" format="2">
	<advance width="600"/>
	<unicode hex="0075"/>
	<outline>
		<contour>
			<point x="118" y="187" type="line" smooth="yes"/>
			<point x="118" y="-69"/>
			<point x="403" y="-73"/>
			<point x="495" y="169" type="curve"/>
			<point x="488" y="224" type="line"/>
			<point x="459" y="-18"/>
			<point x="148" y="-63"/>
			<point x="148" y="176" type="curve" smooth="yes"/>
			<point x="148" y="557" type="line"/>
			<point x="118" y="557" type="line"/>
		</contour>
		<contour>
			<point x="515" y="557" type="line"/>
			<point x="488" y="557" type="line"/>
			<point x="488" y="22" type="line"/>
			<point x="515" y="22" type="line"/>
		</contour>
		<contour>
			<point x="503" y="560" type="curve" smooth="yes"/>
			<point x="488" y="560"/>
			<point x="470" y="555"/>
			<point x="470" y="547" type="curve"/>
			<point x="479" y="533"/>
			<point x="488" y="507"/>
			<point x="488" y="475" type="curve"/>
			<point x="515" y="475" type="line"/>
			<point x="515" y="507"/>
			<point x="524" y="533"/>
			<point x="533" y="547" type="curve"/>
			<point x="533" y="555"/>
			<point x="515" y="560"/>
		</contour>
		<contour>
			<point x="503" y="-10" type="curve" smooth="yes"/>
			<point x="515" y="-10"/>
			<point x="533" y="-4"/>
			<point x="533" y="4" type="curve"/>
			<point x="524" y="17"/>
			<point x="515" y="44"/>
			<point x="515" y="76" type="curve"/>
			<point x="488" y="76" type="line"/>
			<point x="488" y="44"/>
			<point x="479" y="17"/>
			<point x="470" y="4" type="curve"/>
			<point x="470" y="-4"/>
			<point x="488" y="-10"/>
		</contour>
		<contour>
			<point x="134" y="560" type="curve" smooth="yes"/>
			<point x="119" y="560"/>
			<point x="100" y="555"/>
			<point x="100" y="547" type="curve"/>
			<point x="109" y="533"/>
			<point x="118" y="507"/>
			<point x="118" y="475" type="curve"/>
			<point x="148" y="475" type="line"/>
			<point x="148" y="507"/>
			<point x="157" y="533"/>
			<point x="166" y="547" type="curve"/>
			<point x="166" y="555"/>
			<point x="146" y="560"/>
		</contour>
	</outline>
</glyph>
<glyph name="v" format="2">
	<advance width="520"/>
	<unicode hex="0076"/>
	<outline>
		<contour>
			<point x="46" y="466" type="curve" smooth="yes"/>
			<point x="102" y="308"/>
			<point x="167" y="173"/>
			<point x="240" y="26" type="curve"/>
			<point x="270" y="26" type="line"/>
			<point x="196" y="176"/>
			<point x="124" y="312"/>
			<point x="71" y="475" type="curve" smooth="yes"/>
			<point x="61" y="506"/>
			<point x="61" y="534"/>
			<point x="65" y="549" type="curve"/>
			<point x="62" y="556"/>
			<point x="43" y="557"/>
			<point x="29" y="555" type="curve" smooth="yes"/>
			<point x="17" y="553"/>
			<point x="3" y="545"/>
			<point x="5" y="537" type="curve"/>
			<point x="18" y="528"/>
			<point x="35" y="497"/>
		</contour>
		<contour>
			<point x="474" y="466" type="curve" smooth="yes"/>
			<point x="485" y="497"/>
			<point x="502" y="528"/>
			<point x="515" y="537" type="curve"/>
			<point x="517" y="545"/>
			<point x="503" y="553"/>
			<point x="491" y="555" type="curve" smooth="yes"/>
			<point x="477" y="557"/>
			<point x="463" y="556"/>
			<point x="460" y="549" type="curve"/>
			<point x="464" y="534"/>
			<point x="464" y="506"/>
			<point x="454" y="475" type="curve" smooth="yes"/>
			<point x="401" y="312"/>
			<point x="329" y="176"/>
			<point x="255" y="26" type="curve"/>
			<point x="280" y="26" type="line"/>
			<point x="353" y="173"/>
			<point x="418" y="308"/>
		</contour>
		<contour>
			<point x="259" y="-14" type="curve" smooth="yes"/>
			<point x="280" y="-14"/>
			<point x="299" y="-7"/>
			<point x="299" y="0" type="curve"/>
			<point x="280" y="13"/>
			<point x="280" y="26"/>
			<point x="288" y="42" type="curve"/>
			<point x="232" y="42" type="line"/>
			<point x="240" y="26"/>
			<point x="240" y="13"/>
			<point x="220" y="0" type="curve"/>
			<point x="220" y="-7"/>
			<point x="242" y="-14"/>
		</contour>
	</outline>
</glyph>
<glyph name="w" format="2">
	<advance width="831"/>
	<unicode hex="0077"/>
	<outline>
		<contour>
			<point x="276" y="0" type="curve" smooth="yes"/>
			<point x="335" y="99"/>
			<point x="380" y="200"/>
			<point x="422" y="311" type="curve"/>
			<point x="409" y="341" type="line"/>
			<point x="368" y="234"/>
			<point x="316" y="121"/>
			<point x="266" y="24" type="curve"/>
			<point x="272" y="24" type="line"/>
			<point x="201" y="132"/>
			<point x="139" y="295"/>
			<point x="80" y="476" type="curve" smooth="yes"/>
			<point x="74" y="495"/>
			<point x="71" y="509"/>
			<point x="71" y="523" type="curve" smooth="yes"/>
			<point x="71" y="535"/>
			<point x="75" y="543"/>
			<point x="83" y="550" type="curve"/>
			<point x="81" y="555"/>
			<point x="63" y="556"/>
			<point x="49" y="556" type="curve" smooth="yes"/>
			<point x="37" y="556"/>
			<point x="10" y="553"/>
			<point x="10" y="537" type="curve"/>
			<point x="23" y="528"/>
			<point x="38" y="497"/>
			<point x="49" y="466" type="curve" smooth="yes"/>
			<point x="111" y="291"/>
			<point x="166" y="144"/>
			<point x="252" y="0" type="curve" smooth="yes"/>
			<point x="255" y="-5"/>
			<point x="259" y="-8"/>
			<point x="264" y="-8" type="curve" smooth="yes"/>
			<point x="269" y="-8"/>
			<point x="273" y="-5"/>
		</contour>
		<contour>
			<point x="579" y="0" type="curve" smooth="yes"/>
			<point x="665" y="144"/>
			<point x="720" y="291"/>
			<point x="782" y="466" type="curve" smooth="yes"/>
			<point x="793" y="497"/>
			<point x="808" y="528"/>
			<point x="821" y="537" type="curve"/>
			<point x="821" y="549"/>
			<point x="806" y="555"/>
			<point x="777" y="555" type="curve" smooth="yes"/>
			<point x="746" y="555"/>
			<point x="729" y="551"/>
			<point x="729" y="543" type="curve"/>
			<point x="753" y="533"/>
			<point x="761" y="520"/>
			<point x="761" y="499" type="curve" smooth="yes"/>
			<point x="761" y="491"/>
			<point x="759" y="482"/>
			<point x="757" y="475" type="curve" smooth="yes"/>
			<point x="717" y="336"/>
			<point x="641" y="164"/>
			<point x="569" y="24" type="curve"/>
			<point x="575" y="24" type="line"/>
			<point x="504" y="132"/>
			<point x="440" y="294"/>
			<point x="383" y="476" type="curve" smooth="yes"/>
			<point x="377" y="495"/>
			<point x="374" y="509"/>
			<point x="374" y="523" type="curve" smooth="yes"/>
			<point x="374" y="535"/>
			<point x="378" y="543"/>
			<point x="386" y="550" type="curve"/>
			<point x="384" y="555"/>
			<point x="366" y="556"/>
			<point x="352" y="556" type="curve" smooth="yes"/>
			<point x="340" y="556"/>
			<point x="313" y="553"/>
			<point x="313" y="537" type="curve"/>
			<point x="326" y="528"/>
			<point x="341" y="497"/>
			<point x="352" y="466" type="curve" smooth="yes"/>
			<point x="414" y="291"/>
			<point x="469" y="144"/>
			<point x="555" y="0" type="curve" smooth="yes"/>
			<point x="558" y="-5"/>
			<point x="562" y="-8"/>
			<point x="567" y="-8" type="curve" smooth="yes"/>
			<point x="572" y="-8"/>
			<point x="576" y="-5"/>
		</contour>
	</outline>
</glyph>
<glyph name="y" format="2">
	<advance width="546"/>
	<unicode hex="0079"/>
	<outline>
		<contour>
			<point x="107" y="466" type="curve" smooth="yes"/>
			<point x="163" y="308"/>
			<point x="226" y="180"/>
			<point x="310" y="51" type="curve"/>
			<point x="330" y="74" type="line"/>
			<point x="259" y="170"/>
			<point x="191" y="313"/>
			<point x="138" y="476" type="curve" smooth="yes"/>
			<point x="132" y="495"/>
			<point x="129" y="509"/>
			<point x="129" y="523" type="curve" smooth="yes"/>
			<point x="129" y="535"/>
			<point x="133" y="543"/>
			<point x="141" y="550" type="curve"/>
			<point x="139" y="555"/>
			<point x="121" y="556"/>
			<point x="107" y="556" type="curve" smooth="yes"/>
			<point x="95" y="556"/>
			<point x="68" y="553"/>
			<point x="68" y="537" type="curve"/>
			<point x="81" y="528"/>
			<point x="96" y="497"/>
		</contour>
		<contour>
			<point x="5" y="-104"/>
			<point x="-5" y="-111"/>
			<point x="-5" y="-121" type="curve" smooth="yes"/>
			<point x="-5" y="-145"/>
			<point x="40" y="-172"/>
			<point x="80" y="-172" type="curve" smooth="yes"/>
			<point x="278" y="-172"/>
			<point x="417" y="214"/>
			<point x="507" y="466" type="curve" smooth="yes"/>
			<point x="518" y="497"/>
			<point x="535" y="528"/>
			<point x="548" y="537" type="curve"/>
			<point x="548" y="549"/>
			<point x="533" y="555"/>
			<point x="504" y="555" type="curve" smooth="yes"/>
			<point x="473" y="555"/>
			<point x="456" y="551"/>
			<point x="456" y="543" type="curve"/>
			<point x="480" y="533"/>
			<point x="488" y="520"/>
			<point x="488" y="499" type="curve" smooth="yes"/>
			<point x="488" y="491"/>
			<point x="486" y="482"/>
			<point x="484" y="475" type="curve" smooth="yes"/>
			<point x="403" y="232"/>
			<point x="259" y="-145"/>
			<point x="100" y="-145" type="curve" smooth="yes"/>
			<point x="71" y="-145"/>
			<point x="51" y="-129"/>
			<point x="30" y="-112" type="curve" smooth="yes"/>
			<point x="24" y="-107"/>
			<point x="18" y="-104"/>
			<point x="13" y="-104" type="curve" smooth="yes"/>
		</contour>
	</outline>
</glyph>
<glyph name="ccedilla" format="2">
	<advance width="578"/>
	<unicode hex="00E7"/>
	<outline>
		<contour>
			<point x="528" y="358" type="curve" smooth="yes"/>
			<point x="539" y="358"/>
			<point x="541" y="368"/>
			<point x="541" y="385" type="curve" smooth="yes"/>
			<point x="541" y="483"/>
			<point x="440" y="560"/>
			<point x="310" y="560" type="curve" smooth="yes"/>
			<point x="128" y="560"/>
			<point x="22" y="427"/>
			<point x="27" y="259" type="curve" smooth="yes"/>
			<point x="32" y="94"/>
			<point x="141" y="-16"/>
			<point x="294" y="-16" type="curve" smooth="yes"/>
			<point x="432" y="-16"/>
			<point x="545" y="69"/>
			<point x="547" y="177" type="curve" smooth="yes"/>
			<point x="548" y="198"/>
			<point x="542" y="207"/>
			<point x="533" y="207" type="curve" smooth="yes"/>
			<point x="517" y="207"/>
			<point x="514" y="198"/>
			<point x="513" y="174" type="curve" smooth="yes"/>
			<point x="512" y="78"/>
			<point x="419" y="2"/>
			<point x="306" y="2" type="curve" smooth="yes"/>
			<point x="168" y="2"/>
			<point x="56" y="126"/>
			<point x="59" y="274" type="curve" smooth="yes"/>
			<point x="63" y="451"/>
			<point x="187" y="546"/>
			<point x="300" y="546" type="curve" smooth="yes"/>
			<point x="407" y="546"/>
			<point x="506" y="472"/>
			<point x="506" y="380" type="curve" smooth="yes"/>
			<point x="506" y="365"/>
			<point x="516" y="358"/>
		</contour>
		<contour>
			<point x="302" y="-141" type="curve" smooth="yes"/>
			<point x="352" y="-141"/>
			<point x="376" y="-119"/>
			<point x="376" y="-97" type="curve" smooth="yes"/>
			<point x="376" y="-38"/>
			<point x="306" y="-70"/>
			<point x="320" y="-10" type="curve"/>
			<point x="301" y="-12" type="line"/>
			<point x="281" y="-87"/>
			<point x="348" y="-43"/>
			<point x="348" y="-95" type="curve" smooth="yes"/>
			<point x="348" y="-114"/>
			<point x="329" y="-125"/>
			<point x="301" y="-125" type="curve" smooth="yes"/>
			<point x="276" y="-125"/>
			<point x="258" y="-117"/>
			<point x="258" y="-95" type="curve" smooth="yes"/>
			<point x="258" y="-81"/>
			<point x="250" y="-76"/>
			<point x="239" y="-76" type="curve" smooth="yes"/>
			<point x="233" y="-76"/>
			<point x="225" y="-82"/>
			<point x="225" y="-92" type="curve" smooth="yes"/>
			<point x="225" y="-121"/>
			<point x="260" y="-141"/>
		</contour>
	</outline>
</glyph>
<glyph name="ntilde" format="2">
	<advance width="662"/>
	<unicode hex="00F1"/>
	<outline>
		<contour>
			<point x="82" y="0"/>
			<point x="82" y="0"/>
		</contour>
		<contour>
			<point x="177" y="658" type="curve" smooth="yes"/>
			<point x="177" y="646"/>
			<point x="180" y="637"/>
			<point x="194" y="637" type="curve" smooth="yes"/>
			<point x="204" y="637"/>
			<point x="212" y="644"/>
			<point x="212" y="657" type="curve" smooth="yes"/>
			<point x="212" y="707"/>
			<point x="233" y="731"/>
			<point x="271" y="731" type="curve" smooth="yes"/>
			<point x="332" y="731"/>
			<point x="388" y="667"/>
			<point x="462" y="667" type="curve" smooth="yes"/>
			<point x="511" y="667"/>
			<point x="562" y="695"/>
			<point x="562" y="759" type="curve" smooth="yes"/>
			<point x="562" y="775"/>
			<point x="559" y="784"/>
			<point x="547" y="784" type="curve" smooth="yes"/>
			<point x="534" y="784"/>
			<point x="529" y="773"/>
			<point x="529" y="764" type="curve" smooth="yes"/>
			<point x="529" y="702"/>
			<point x="502" y="684"/>
			<point x="467" y="684" type="curve" smooth="yes"/>
			<point x="414" y="684"/>
			<point x="360" y="747"/>
			<point x="282" y="747" type="curve" smooth="yes"/>
			<point x="217" y="747"/>
			<point x="177" y="703"/>
		</contour>
		<contour>
			<point x="577" y="75" type="curve" smooth="yes"/>
			<point x="577" y="380" type="line" smooth="yes"/>
			<point x="577" y="493"/>
			<point x="517" y="560"/>
			<point x="416" y="560" type="curve" smooth="yes"/>
			<point x="323" y="560"/>
			<point x="235" y="491"/>
			<point x="200" y="373" type="curve"/>
			<point x="200" y="338" type="line"/>
			<point x="249" y="471"/>
			<point x="319" y="532"/>
			<point x="411" y="532" type="curve" smooth="yes"/>
			<point x="499" y="532"/>
			<point x="547" y="476"/>
			<point x="547" y="374" type="curve" smooth="yes"/>
			<point x="547" y="75" type="line" smooth="yes"/>
			<point x="547" y="43"/>
			<point x="538" y="17"/>
			<point x="529" y="3" type="curve"/>
			<point x="529" y="-5"/>
			<point x="549" y="-10"/>
			<point x="561" y="-10" type="curve" smooth="yes"/>
			<point x="576" y="-10"/>
			<point x="595" y="-5"/>
			<point x="595" y="3" type="curve"/>
			<point x="586" y="17"/>
			<point x="577" y="43"/>
		</contour>
		<contour>
			<point x="207" y="474" type="line" smooth="yes"/>
			<point x="207" y="506"/>
			<point x="216" y="533"/>
			<point x="225" y="546" type="curve"/>
			<point x="225" y="554"/>
			<point x="211" y="560"/>
			<point x="192" y="560" type="curve" smooth="yes"/>
			<point x="174" y="560"/>
			<point x="162" y="554"/>
			<point x="162" y="546" type="curve"/>
			<point x="171" y="533"/>
			<point x="180" y="506"/>
			<point x="180" y="474" type="curve" smooth="yes"/>
			<point x="180" y="75" type="line" smooth="yes"/>
			<point x="180" y="33"/>
			<point x="171" y="17"/>
			<point x="162" y="3" type="curve"/>
			<point x="162" y="-5"/>
			<point x="180" y="-10"/>
			<point x="192" y="-10" type="curve" smooth="yes"/>
			<point x="207" y="-10"/>
			<point x="225" y="-5"/>
			<point x="225" y="3" type="curve"/>
			<point x="216" y="17"/>
			<point x="207" y="33"/>
			<point x="207" y="75" type="curve" smooth="yes"/>
		</contour>
	</outline>
</glyph>
<glyph name="k.001" format="2">
	<advance width="600"/>
	<guideline x="54" y="-10" angle="0"/>
	<outline>
		<contour>
			<point x="121" y="-10" type="curve" smooth="yes"/>
			<point x="135" y="-10"/>
			<point x="154" y="-4"/>
			<point x="154" y="5" type="curve"/>
			<point x="144" y="20"/>
			<point x="133" y="49"/>
			<point x="133" y="85" type="curve"/>
			<point x="106" y="85" type="line"/>
			<point x="106" y="49"/>
			<point x="95" y="20"/>
			<point x="85" y="5" type="curve"/>
			<point x="85" y="-4"/>
			<point x="105" y="-10"/>
		</contour>
		<contour>
			<point x="106" y="59" type="line"/>
			<point x="133" y="59" type="line"/>
			<point x="133" y="665" type="line"/>
			<point x="106" y="665" type="line"/>
		</contour>
		<contour>
			<point x="106" y="665" type="curve"/>
			<point x="133" y="665" type="line"/>
			<point x="133" y="701"/>
			<point x="144" y="730"/>
			<point x="154" y="745" type="curve"/>
			<point x="154" y="754"/>
			<point x="134" y="760"/>
			<point x="118" y="760" type="curve" smooth="yes"/>
			<point x="104" y="760"/>
			<point x="85" y="754"/>
			<point x="85" y="745" type="curve"/>
			<point x="95" y="730"/>
			<point x="106" y="701"/>
		</contour>
		<contour>
			<point x="374" y="560" type="curve"/>
			<point x="220" y="560"/>
			<point x="160" y="385"/>
			<point x="126" y="267" type="curve"/>
			<point x="118" y="267" type="line"/>
			<point x="120" y="231" type="line"/>
			<point x="118" y="243"/>
			<point x="137" y="242"/>
			<point x="316" y="263" type="curve" smooth="yes"/>
			<point x="444" y="277"/>
			<point x="508" y="330"/>
			<point x="508" y="422" type="curve" smooth="yes"/>
			<point x="508" y="494"/>
			<point x="469" y="564"/>
		</contour>
		<contour>
			<point x="115" y="270" type="curve"/>
			<point x="144" y="255" type="line"/>
			<point x="208" y="447"/>
			<point x="261" y="537"/>
			<point x="379" y="537" type="curve" smooth="yes"/>
			<point x="453" y="537"/>
			<point x="476" y="463"/>
			<point x="476" y="419" type="curve" smooth="yes"/>
			<point x="476" y="368"/>
			<point x="457" y="301"/>
			<point x="330" y="284" type="curve" smooth="yes"/>
			<point x="236" y="270"/>
			<point x="217" y="270"/>
		</contour>
		<contour>
			<point x="408" y="-16" type="curve" smooth="yes"/>
			<point x="530" y="-16"/>
			<point x="614" y="61"/>
			<point x="617" y="177" type="curve" smooth="yes"/>
			<point x="617" y="197"/>
			<point x="612" y="207"/>
			<point x="602" y="207" type="curve" smooth="yes"/>
			<point x="587" y="207"/>
			<point x="583" y="200"/>
			<point x="583" y="174" type="curve" smooth="yes"/>
			<point x="581" y="69"/>
			<point x="517" y="2"/>
			<point x="420" y="2" type="curve" smooth="yes"/>
			<point x="281" y="2"/>
			<point x="219" y="86"/>
			<point x="223" y="270" type="curve"/>
			<point x="195" y="259" type="line"/>
			<point x="201" y="70"/>
			<point x="268" y="-16"/>
		</contour>
	</outline>
</glyph>
<glyph name="ntilde.lig" format="2">
	<advance width="600"/>
	<outline>
		<contour>
			<point x="488" y="363" type="line" smooth="yes"/>
			<point x="488" y="494"/>
			<point x="414" y="559"/>
			<point x="328" y="559" type="curve" smooth="yes"/>
			<point x="247" y="559"/>
			<point x="156" y="499"/>
			<point x="111" y="381" type="curve"/>
			<point x="118" y="326" type="line"/>
			<point x="134" y="459"/>
			<point x="234" y="532"/>
			<point x="322" y="532" type="curve" smooth="yes"/>
			<point x="394" y="532"/>
			<point x="458" y="482"/>
			<point x="458" y="374" type="curve" smooth="yes"/>
			<point x="458" y="-7" type="line"/>
			<point x="488" y="-7" type="line"/>
		</contour>
		<contour>
			<point x="91" y="-7" type="line"/>
			<point x="118" y="-7" type="line"/>
			<point x="118" y="528" type="line"/>
			<point x="91" y="528" type="line"/>
		</contour>
		<contour>
			<point x="103" y="-10" type="curve" smooth="yes"/>
			<point x="118" y="-10"/>
			<point x="136" y="-5"/>
			<point x="136" y="3" type="curve"/>
			<point x="127" y="17"/>
			<point x="118" y="43"/>
			<point x="118" y="75" type="curve"/>
			<point x="91" y="75" type="line"/>
			<point x="91" y="43"/>
			<point x="82" y="17"/>
			<point x="73" y="3" type="curve"/>
			<point x="73" y="-5"/>
			<point x="91" y="-10"/>
		</contour>
		<contour>
			<point x="103" y="560" type="curve" smooth="yes"/>
			<point x="91" y="560"/>
			<point x="73" y="554"/>
			<point x="73" y="546" type="curve"/>
			<point x="82" y="533"/>
			<point x="91" y="506"/>
			<point x="91" y="474" type="curve"/>
			<point x="118" y="474" type="line"/>
			<point x="118" y="506"/>
			<point x="127" y="533"/>
			<point x="136" y="546" type="curve"/>
			<point x="136" y="554"/>
			<point x="118" y="560"/>
		</contour>
		<contour>
			<point x="472" y="-10" type="curve" smooth="yes"/>
			<point x="487" y="-10"/>
			<point x="506" y="-5"/>
			<point x="506" y="3" type="curve"/>
			<point x="497" y="17"/>
			<point x="488" y="43"/>
			<point x="488" y="75" type="curve"/>
			<point x="458" y="75" type="line"/>
			<point x="458" y="43"/>
			<point x="449" y="17"/>
			<point x="440" y="3" type="curve"/>
			<point x="440" y="-5"/>
			<point x="460" y="-10"/>
		</contour>
		<contour>
			<point x="73" y="546" type="curve" smooth="yes"/>
			<point x="86" y="528"/>
			<point x="132" y="532"/>
			<point x="132" y="549" type="curve" smooth="yes"/>
			<point x="132" y="552"/>
			<point x="127" y="556"/>
			<point x="109" y="560" type="curve" smooth="yes"/>
			<point x="84" y="566"/>
			<point x="65" y="594"/>
			<point x="65" y="624" type="curve" smooth="yes"/>
			<point x="65" y="675"/>
			<point x="113" y="711"/>
			<point x="159" y="711" type="curve" smooth="yes"/>
			<point x="236" y="711"/>
			<point x="301" y="650"/>
			<point x="382" y="650" type="curve" smooth="yes"/>
			<point x="431" y="650"/>
			<point x="480" y="682"/>
			<point x="480" y="746" type="curve" smooth="yes"/>
			<point x="480" y="762"/>
			<point x="477" y="771"/>
			<point x="465" y="771" type="curve" smooth="yes"/>
			<point x="452" y="771"/>
			<point x="447" y="760"/>
			<point x="447" y="751" type="curve" smooth="yes"/>
			<point x="447" y="689"/>
			<point x="420" y="671"/>
			<point x="385" y="671" type="curve" smooth="yes"/>
			<point x="334" y="671"/>
			<point x="272" y="734"/>
			<point x="167" y="734" type="curve" smooth="yes"/>
			<point x="94" y="734"/>
			<point x="44" y="678"/>
			<point x="44" y="613" type="curve" smooth="yes"/>
			<point x="44" y="589"/>
			<point x="59" y="565"/>
		</contour>
	</outline>
</glyph>
